HIERARCHY
ROOT Hips
{
	OFFSET 0.000000 0.000000 0.000000
	CHANNELS 6 Xposition Yposition Zposition Xrotation Yrotation Zrotation
	JOINT LeftUpLeg_virtual
	{
		OFFSET 0.000000 0.000000 0.000000
		CHANNELS 3 Xrotation Yrotation Zrotation
		JOINT LeftUpLeg
		{
			OFFSET 13.026900 -6.336304 -1.092800
			CHANNELS 3 Xrotation Yrotation Zrotation
			JOINT LeftLeg
			{
				OFFSET 0.524474 -46.096886 9.782700
				CHANNELS 3 Xrotation Yrotation Zrotation
				JOINT LeftFoot
				{
					OFFSET -0.524474 -53.427422 -12.948200
					CHANNELS 3 Xrotation Yrotation Zrotation
					JOINT LeftToeBase
					{
						OFFSET 0.192200 -14.009700 16.364100
						CHANNELS 3 Xrotation Yrotation Zrotation
						JOINT LeftToe_End
						{
							OFFSET -1.784700 -0.561700 9.474800
							CHANNELS 3 Xrotation Yrotation Zrotation
							End Site
							{
								OFFSET 0 0 0
							}
						}
					}
				}
			}
		}
	}
	JOINT RightUpLeg_virtual
	{
		OFFSET 0.000000 0.000000 0.000000
		CHANNELS 3 Xrotation Yrotation Zrotation
		JOINT RightUpLeg
		{
			OFFSET -12.883000 -6.336304 -1.092800
			CHANNELS 3 Xrotation Yrotation Zrotation
			JOINT RightLeg
			{
				OFFSET -0.524587 -46.096825 9.782800
				CHANNELS 3 Xrotation Yrotation Zrotation
				JOINT RightFoot
				{
					OFFSET 0.524587 -53.427383 -12.948300
					CHANNELS 3 Xrotation Yrotation Zrotation
					JOINT RightToeBase
					{
						OFFSET -0.192200 -14.009700 16.364100
						CHANNELS 3 Xrotation Yrotation Zrotation
						JOINT RightToe_End
						{
							OFFSET 1.784700 -0.561700 9.474800
							CHANNELS 3 Xrotation Yrotation Zrotation
							End Site
							{
								OFFSET 0 0 0
							}
						}
					}
				}
			}
		}
	}
	JOINT Spine_virtual
	{
		OFFSET 0.000000 0.000000 0.000000
		CHANNELS 3 Xrotation Yrotation Zrotation
		JOINT Spine
		{
			OFFSET 0.072000 7.257294 -0.789700
			CHANNELS 3 Xrotation Yrotation Zrotation
			JOINT Spine1
			{
				OFFSET 0.000000 12.508769 -0.658067
				CHANNELS 3 Xrotation Yrotation Zrotation
				JOINT Spine1_split
				{
					OFFSET 0.000000 12.508769 -0.658067
					CHANNELS 3 Xrotation Yrotation Zrotation
					JOINT Spine2
					{
						OFFSET 0.000000 12.508769 -0.658067
						CHANNELS 3 Xrotation Yrotation Zrotation
						JOINT Neck_virtual
						{
							OFFSET 0.000000 0.000000 0.000000
							CHANNELS 3 Xrotation Yrotation Zrotation
							JOINT Neck
							{
								OFFSET 0.000000 14.033295 7.520400
								CHANNELS 3 Xrotation Yrotation Zrotation
								JOINT Head
								{
									OFFSET 0.000000 8.198502 5.703100
									CHANNELS 3 Xrotation Yrotation Zrotation
									JOINT HeadTop_End
									{
										OFFSET 0.000000 17.760803 13.332701
										CHANNELS 3 Xrotation Yrotation Zrotation
										End Site
										{
											OFFSET 0 0 0
										}
									}
								}
							}
						}
						JOINT LeftShoulder_virtual
						{
							OFFSET 0.000000 0.000000 0.000000
							CHANNELS 3 Xrotation Yrotation Zrotation
							JOINT LeftShoulder
							{
								OFFSET 6.292450 5.785301 -0.669000
								CHANNELS 3 Xrotation Yrotation Zrotation
								JOINT LeftShoulder_split
								{
									OFFSET 6.292450 5.785301 -0.669000
									CHANNELS 3 Xrotation Yrotation Zrotation
									JOINT LeftArm
									{
										OFFSET 13.907140 -6.093903 1.965100
										CHANNELS 3 Xrotation Yrotation Zrotation
										JOINT LeftForeArm
										{
											OFFSET 34.140198 0.000000 0.000000
											CHANNELS 3 Xrotation Yrotation Zrotation
											JOINT LeftHand
											{
												OFFSET 40.960209 0.000000 0.000000
												CHANNELS 3 Xrotation Yrotation Zrotation
												End Site
												{
													OFFSET 0 0 0
												}
											}
										}
									}
								}
							}
						}
						JOINT RightShoulder_virtual
						{
							OFFSET 0.000000 0.000000 0.000000
							CHANNELS 3 Xrotation Yrotation Zrotation
							JOINT RightShoulder
							{
								OFFSET -6.292450 5.785301 -0.669000
								CHANNELS 3 Xrotation Yrotation Zrotation
								JOINT RightShoulder_split
								{
									OFFSET -6.292450 5.785301 -0.669000
									CHANNELS 3 Xrotation Yrotation Zrotation
									JOINT RightArm
									{
										OFFSET -13.907140 -6.093903 1.965100
										CHANNELS 3 Xrotation Yrotation Zrotation
										JOINT RightForeArm
										{
											OFFSET -34.140198 0.000000 0.000000
											CHANNELS 3 Xrotation Yrotation Zrotation
											JOINT RightHand
											{
												OFFSET -40.960209 0.000000 0.000000
												CHANNELS 3 Xrotation Yrotation Zrotation
												End Site
												{
													OFFSET 0 0 0
												}
											}
										}
									}
								}
							}
						}
					}
				}
			}
		}
	}
}
MOTION
Frames: 8
Frame Time: 0.03333333
1.969303 93.179115 1.020535 0.000000 0.000000 0.000000 -0.643831 -45.634625 3.665539 -41.487054 7.557376 21.470899 56.366949 -8.219646 0.706597 -12.709108 -10.148220 -9.122314 -3.214641 -0.744554 0.633294 0.000000 0.000000 0.000000 -1.634373 -45.265965 4.302913 -20.695501 -12.527410 -30.592882 59.478947 0.900173 -4.283027 -23.241809 -11.615372 23.767735 -3.310566 -0.062382 0.350674 0.000000 0.000000 0.000000 -0.219069 -44.905208 4.683827 9.950646 11.792943 -3.552689 0.880605 3.797509 -1.858621 0.466745 -2.745270 1.403859 0.000000 0.000000 0.000000 2.219601 3.909818 -1.835660 -6.891713 11.254101 2.697596 5.509145 19.511810 1.017691 0.000000 0.000000 0.000000 1.509749 3.882018 -1.465982 1.136211 1.294049 -3.650091 -0.325454 -3.604043 1.389468 5.521715 0.263481 -37.230053 178.871644 -50.366488 178.604556 0.000000 0.000000 0.000000 0.792773 3.617888 -1.519657 2.231715 14.234879 -4.186926 -6.702491 -0.343702 1.725157 -59.372376 19.917552 63.138419 -159.675548 79.818178 158.766955 0.000000 0.000000 0.000000 
2.428544 93.565994 1.093643 0.000000 0.000000 0.000000 -0.386238 -50.341213 3.480915 -36.915451 8.734743 21.813379 55.355401 -7.868257 -0.310238 -16.112348 -6.452962 -8.752365 -3.657620 -0.819391 0.834274 0.000000 0.000000 0.000000 -1.292175 -49.900218 4.370516 -25.015708 -7.154128 -30.654845 60.883896 2.015869 -4.932550 -22.095513 -9.631183 23.432339 -2.323914 0.011097 0.358947 0.000000 0.000000 0.000000 0.406041 -48.901050 4.915976 10.002547 11.500038 -2.678753 1.111027 3.558175 -1.807281 0.633956 -2.656284 1.269244 0.000000 0.000000 0.000000 2.463563 3.709959 -1.737020 -6.705078 12.292700 2.326524 4.174468 22.567099 -0.501527 0.000000 0.000000 0.000000 1.462230 3.682587 -1.380278 1.349088 1.997075 -1.682791 0.570418 -3.908279 0.749569 1.318342 4.914997 -32.254769 179.184644 -54.462651 178.712829 0.000000 0.000000 0.000000 0.785997 3.415112 -1.412277 1.879722 11.616971 -2.128889 -5.860133 -0.664317 2.077081 -60.744158 22.463543 68.022585 -168.311120 75.424235 167.297697 0.000000 0.000000 0.000000 
2.764900 93.773239 1.028999 0.000000 0.000000 0.000000 -0.282800 -54.765478 2.841770 -33.164270 8.736563 22.061523 55.562599 -7.587051 -0.698634 -19.297566 -2.960349 -8.618661 -3.899913 -0.835662 0.852988 0.000000 0.000000 0.000000 -1.062473 -54.028839 3.915006 -28.432097 -2.761010 -30.082947 60.837280 2.992527 -5.408779 -20.650751 -7.660743 23.260271 -1.758864 0.121974 0.343375 0.000000 0.000000 0.000000 1.039856 -52.402349 4.584738 9.941110 10.614508 -2.045512 1.349424 2.969363 -1.748240 0.973025 -2.648315 1.160302 0.000000 0.000000 0.000000 2.703749 3.076284 -1.587205 -6.585152 13.401207 2.087648 3.050877 25.621858 -2.311358 0.000000 0.000000 0.000000 1.532059 3.056048 -1.324595 1.458218 2.593413 0.589350 0.681493 -2.290493 -0.101335 -7.444006 5.514897 -24.795347 178.755107 -66.102789 178.362372 0.000000 0.000000 0.000000 0.878758 2.822466 -1.420729 1.561456 9.830442 -0.546214 -5.189726 -1.457665 2.081900 -61.676581 24.991826 72.246476 -173.430237 71.679058 172.055061 0.000000 0.000000 0.000000 
2.945437 93.863129 0.779852 0.000000 0.000000 0.000000 -0.571592 -57.826253 1.689132 -31.069294 7.504767 22.293638 56.900100 -7.604068 -0.357457 -21.608123 -0.265382 -9.034664 -3.600104 -0.768265 0.665048 0.000000 0.000000 0.000000 -1.219325 -56.799727 2.794474 -30.165937 -0.219483 -29.125815 59.435780 3.570898 -5.614310 -19.390340 -6.131065 23.130832 -1.761200 0.243200 0.353079 0.000000 0.000000 0.000000 1.309597 -54.768312 3.604782 9.786427 9.057200 -1.628359 1.525851 2.040956 -1.723157 1.336404 -2.448779 0.978428 0.000000 0.000000 0.000000 2.823984 2.026903 -1.516272 -6.497759 14.459526 2.043775 2.691745 28.360936 -4.288147 0.000000 0.000000 0.000000 1.925326 2.000611 -1.381819 1.538913 2.950389 2.689277 -0.282072 0.589053 -0.918413 -18.290369 1.073283 -17.485375 169.667145 -85.314704 169.486582 0.000000 0.000000 0.000000 1.085144 1.829930 -1.558803 1.331942 8.889611 0.521430 -5.178236 -2.183106 1.613174 -60.493326 27.465396 75.458728 -176.799529 68.264599 174.841928 0.000000 0.000000 0.000000 
2.951716 93.863327 0.460623 0.000000 0.000000 0.000000 -1.222873 -58.681741 0.100108 -30.937909 5.512147 22.406999 58.734340 -7.802333 0.548153 -22.486181 1.217270 -10.092265 -3.059690 -0.610645 0.383890 0.000000 0.000000 0.000000 -1.763585 -57.666679 1.149238 -29.870948 -0.006783 -28.117278 57.244601 3.525349 -5.566351 -18.793137 -5.451976 22.903274 -2.248865 0.342009 0.410041 0.000000 0.000000 0.000000 1.173667 -55.693882 2.169054 9.515078 7.058240 -1.408081 1.657281 0.984866 -1.777559 1.277131 -2.279894 0.429004 0.000000 0.000000 0.000000 2.788753 0.827001 -1.589893 -6.512060 15.235787 2.180614 3.041594 30.284424 -6.037218 0.000000 0.000000 0.000000 2.584905 0.749862 -1.516123 1.602968 3.192676 4.101126 -1.972901 3.363124 -1.325350 -27.397473 -6.485892 -13.418340 4.751766 -73.048197 4.640042 0.000000 0.000000 0.000000 1.460093 0.676240 -1.808638 1.281801 8.955532 1.048091 -5.869091 -2.166556 1.339191 -56.036600 29.969436 76.675246 -178.510846 64.433935 175.968021 0.000000 0.000000 0.000000 
2.838437 93.792892 0.200304 0.000000 0.000000 0.000000 -1.713773 -57.231507 -1.314658 -32.742376 3.389566 22.248334 60.468559 -7.993043 1.699677 -21.790720 1.414181 -11.555707 -2.651036 -0.423259 0.131124 0.000000 0.000000 0.000000 -2.371667 -56.346356 -0.496878 -27.691011 -1.987024 -27.274554 54.973857 2.856161 -5.335083 -19.211685 -5.782567 22.598253 -2.728860 0.409431 0.483351 0.000000 0.000000 0.000000 0.805378 -54.800226 0.784821 9.222405 5.091277 -1.362343 1.780455 0.145910 -1.901783 0.992303 -1.761421 -0.023328 0.000000 0.000000 0.000000 2.589383 -0.145271 -1.775960 -6.678886 15.478399 2.415518 3.771028 30.611030 -6.981670 0.000000 0.000000 0.000000 3.352345 -0.311413 -1.673050 1.582085 3.650195 4.766726 -3.996843 4.770886 -2.056164 -33.317588 -13.781843 -14.149767 3.622511 -58.406204 3.351056 0.000000 0.000000 0.000000 1.961100 -0.291298 -2.101829 1.445079 10.115327 0.799338 -6.664866 -1.941555 1.755654 -48.124017 32.278600 74.999698 -179.045104 59.522305 176.059000 0.000000 0.000000 0.000000 
2.579754 93.641632 0.082569 0.000000 0.000000 0.000000 -1.765035 -53.832512 -2.051062 -36.191943 1.697564 21.714804 61.848326 -7.890833 2.759292 -19.727685 0.333669 -12.712455 -2.703935 -0.255404 0.044442 0.000000 0.000000 0.000000 -2.566341 -53.022707 -1.508338 -24.169751 -5.683939 -26.580381 53.245276 1.746467 -5.017476 -20.694911 -6.978853 22.308328 -2.947226 0.458189 0.508896 0.000000 0.000000 0.000000 0.401564 -52.190193 -0.157292 9.103004 3.708736 -1.525604 1.951296 -0.169716 -2.045006 0.844509 -1.141989 -0.322186 0.000000 0.000000 0.000000 2.342231 -0.525157 -2.023704 -7.109505 15.015689 2.606925 4.495384 28.959008 -6.710394 0.000000 0.000000 0.000000 3.945695 -0.746628 -1.788712 1.351422 4.337898 4.427093 -4.546833 4.652572 -2.885325 -35.782384 -18.482309 -19.343823 4.138070 -56.197810 3.512114 0.000000 0.000000 0.000000 2.461341 -0.699771 -2.319375 1.868129 12.195082 -0.072670 -7.335824 -1.642422 2.886678 -38.392985 33.387536 69.835194 -178.714017 54.294383 175.741601 0.000000 0.000000 0.000000 
2.256600 93.290466 0.227982 0.000000 0.000000 0.000000 -1.353543 -49.424803 -2.028740 -40.715516 0.768686 20.860689 62.836258 -7.341557 3.522426 -16.754416 -1.670092 -12.944998 -3.087193 -0.144493 0.137802 0.000000 0.000000 0.000000 -2.275169 -48.308644 -1.713469 -20.079342 -10.390816 -26.010154 52.358997 0.510414 -4.683780 -22.860324 -8.733360 22.202194 -2.926284 0.498415 0.426318 0.000000 0.000000 0.000000 0.177845 -48.241541 -0.487112 9.210445 3.393890 -1.916371 2.170890 0.262709 -2.169780 0.882663 -0.925811 -0.273530 0.000000 0.000000 0.000000 2.232009 -0.099841 -2.196696 -7.804342 13.819782 2.632334 4.861272 25.106409 -5.155405 0.000000 0.000000 0.000000 4.119530 -0.298046 -1.811937 0.904463 5.047545 3.308357 -4.031590 3.098695 -3.776633 -34.161232 -20.184792 -27.304786 5.393832 -66.075004 4.614982 0.000000 0.000000 0.000000 2.877609 -0.296612 -2.418848 2.489041 15.028836 -1.747405 -7.553242 -1.340403 4.142037 -29.974893 32.195261 61.846939 -177.973256 51.166177 175.491766 0.000000 0.000000 0.000000 
